<svg width="41" height="35" viewBox="0 0 41 35" fill="none" xmlns="http://www.w3.org/2000/svg">
<path d="M19.2822 0.777477C15.083 1.30658 11.5137 4.22923 10.2875 8.1597L10.0775 8.83158L9.35526 8.94076C8.38104 9.07513 7.18846 9.46986 6.21424 9.96537C1.47753 12.3925 -0.756459 17.8347 0.898033 22.9326C1.90585 26.0148 4.44217 28.5847 7.56639 29.6765C9.06131 30.1972 9.41405 30.2392 12.6642 30.2392C15.5113 30.2392 15.6205 30.2308 15.8473 30.0628C16.2924 29.7353 16.4267 29.4665 16.4267 28.9374C16.4267 28.4083 16.2924 28.1396 15.8473 27.812C15.6289 27.6441 15.4777 27.6357 12.7062 27.5853C9.59042 27.5349 9.37206 27.5097 8.0619 27.0142C7.02889 26.6279 5.80272 25.7292 4.93768 24.7466C2.40135 21.8324 2.40135 17.23 4.93768 14.3242C6.4746 12.5521 8.30546 11.6535 10.7326 11.4855C11.564 11.4183 11.7068 11.3847 11.9672 11.1831C12.3535 10.8892 12.4123 10.7716 12.6055 9.87299C13.2605 6.79916 15.4777 4.48119 18.5599 3.64134C19.4166 3.40619 21.4322 3.38099 22.2973 3.59935C24.1365 4.06127 25.791 5.13627 26.8996 6.5892C27.4539 7.31986 28.0838 8.64681 28.3021 9.52865C28.4029 9.92338 28.4785 10.3013 28.4785 10.3769C28.4785 10.4609 28.5877 10.6708 28.7221 10.8556C29.0328 11.2839 29.4527 11.4435 30.4521 11.5023C33.9459 11.7122 36.9021 14.2318 37.7756 17.7339C37.9771 18.5318 37.9771 20.5306 37.7756 21.3285C37.0281 24.3183 34.8445 26.5439 31.8463 27.3585C31.2752 27.5181 30.8973 27.5433 28.2937 27.5853C25.5223 27.6357 25.3711 27.6441 25.1527 27.812C24.7076 28.1396 24.5732 28.4083 24.5732 28.9374C24.5732 29.4665 24.7076 29.7353 25.1527 30.0628C25.3711 30.2308 25.5055 30.2392 27.9242 30.2644C31.4599 30.298 32.6441 30.0964 34.5674 29.1474C39.3209 26.7958 41.6221 21.3285 40.0096 16.2222C39.556 14.7861 38.6742 13.3079 37.5572 12.1238C35.9951 10.4609 33.7695 9.2851 31.5271 8.93236L30.9224 8.83998L30.7461 8.24369C30.217 6.48841 29.0328 4.67435 27.5631 3.38099C26.0346 2.02045 23.9601 1.07982 21.9025 0.811071C21.281 0.727087 19.8365 0.710291 19.2822 0.777477Z" fill="#283BA5"/>
<path d="M19.9541 11.5863C19.8197 11.6535 18.0897 13.3248 16.116 15.2984C12.6307 18.809 12.5299 18.9098 12.4795 19.2877C12.3367 20.2787 13.2438 21.085 14.176 20.791C14.4195 20.707 15.0326 20.1527 16.8215 18.3723L19.1563 16.0543L19.1731 24.7551C19.1983 33.3971 19.1983 33.4643 19.3746 33.691C19.7022 34.1361 19.9709 34.2705 20.5 34.2705C21.0291 34.2705 21.2979 34.1361 21.6254 33.691C21.8018 33.4643 21.8018 33.3971 21.827 24.7551L21.8438 16.0543L24.1785 18.3723C26.1438 20.3291 26.5637 20.707 26.866 20.7994C27.8402 21.085 28.7725 20.1527 28.4869 19.1701C28.3945 18.8678 27.8822 18.3135 24.842 15.2564C22.8348 13.2492 21.1803 11.6535 21.0291 11.5863C20.6932 11.4436 20.2817 11.4436 19.9541 11.5863Z" fill="#283BA5"/>
</svg>
