<svg width="204" height="42" viewBox="0 0 204 42" fill="none" xmlns="http://www.w3.org/2000/svg">
<path d="M19.8516 4.24101C16.0289 4.60195 12.9199 5.86523 10.2047 8.1457C8.45743 9.61406 6.66915 11.9109 5.86524 13.732L5.66837 14.1832L6.30001 13.8961C8.99883 12.641 11.6648 11.8535 14.5606 11.4352C15.3398 11.3285 16.4555 11.2875 19.9336 11.2383C22.8129 11.2055 24.4125 11.148 24.593 11.0906C25.3395 10.8445 26.0367 10.2211 26.3648 9.52382C26.5207 9.17929 26.5371 8.98242 26.5617 7.16953L26.5863 5.19257L26.3566 5.10234C24.7242 4.4707 21.6809 4.06054 19.8516 4.24101Z" fill="#283BA5"/>
<path d="M29.3672 7.81757C29.3672 8.88398 29.3344 9.29414 29.2031 9.79453C28.8094 11.3367 27.784 12.6082 26.3402 13.3629C25.1672 13.9699 25.2574 13.9617 20.1797 14.0273C15.2496 14.093 14.9461 14.1176 12.559 14.6508C10.0734 15.2086 7.01368 16.4719 4.88907 17.8336L4.4543 18.1125L4.36407 18.7934C4.21641 19.8187 4.15079 21.3609 4.23282 21.5168C4.30665 21.6398 4.37227 21.6152 4.75782 21.3117C7.68633 19.0969 11.2629 17.6121 15.1102 17.0133C15.7664 16.9066 16.9805 16.8656 20.4668 16.8164C25.4051 16.7508 25.3969 16.7508 26.7996 16.2258C28.7684 15.4875 30.3434 14.0355 31.3031 12.0996C31.8117 11.0578 32.066 10.1801 32.1316 9.17929L32.1809 8.47382L31.6148 8.00624C31.0816 7.56328 29.5148 6.48046 29.4164 6.48046C29.3918 6.48046 29.3672 7.08749 29.3672 7.81757Z" fill="#283BA5"/>
<path d="M34.4121 11.9109C33.3457 15.143 30.7371 17.809 27.5215 18.9492C25.8809 19.5316 25.7824 19.5398 20.7539 19.6055C17.1035 19.6547 16.0289 19.6957 15.3399 19.8023C11.5746 20.4094 8.14572 22.0008 5.31564 24.4699L4.6922 25.0195L4.92189 25.7742C5.18439 26.6602 5.65197 27.8906 5.71759 27.8906C5.7422 27.8906 6.08673 27.5871 6.47228 27.2098C9.12189 24.6586 12.1324 23.1738 15.8895 22.5504C16.2176 22.493 18.3012 22.4355 20.959 22.3945C25.8399 22.3289 26.0285 22.3125 27.702 21.8285C31.1309 20.8277 34.0676 18.5391 35.8641 15.4547C36.4957 14.3883 36.4793 14.4457 36.1922 13.8223C35.9051 13.2152 35.1422 11.9109 34.8387 11.5008L34.6336 11.2301L34.4121 11.9109Z" fill="#283BA5"/>
<path d="M36.9469 18.8344C34.6418 21.7055 31.4344 23.7891 27.8988 24.6914C26.2992 25.0934 25.9465 25.1262 21.2051 25.1836C16.3816 25.241 16.193 25.2574 14.4539 25.7168C12.9445 26.1187 11.2137 26.9719 9.84375 27.9809C9.13828 28.5059 7.6125 29.966 7.35 30.368C7.20234 30.5895 7.20234 30.5895 7.59609 31.1062C8.08828 31.7625 8.94141 32.7305 9.01523 32.7305C9.04805 32.7305 9.22031 32.5418 9.39258 32.3039C10.5984 30.7371 12.6082 29.3016 14.6016 28.6125C16.152 28.0711 16.398 28.0465 21.4922 27.9727C25.684 27.9152 26.2172 27.8906 27.0703 27.7348C30.9422 27.0211 34.2891 25.3559 37.1438 22.7145L37.7754 22.1402L37.759 20.7703C37.7508 20.0156 37.6934 19.1051 37.6359 18.7523L37.5293 18.1043L36.9469 18.8344Z" fill="#283BA5"/>
<path d="M36.4875 26.816C36.0281 27.1852 34.2809 28.1941 33.3457 28.6371C31.4754 29.523 29.4492 30.1547 27.3164 30.5238C26.3895 30.6879 25.8727 30.7043 21.7383 30.7617C18.0059 30.8109 17.0789 30.8437 16.5949 30.9504C15.3316 31.2375 14.4211 31.6312 13.3875 32.3449C12.7805 32.7633 11.5336 34.0019 11.3285 34.3957C11.1809 34.6664 11.1727 34.6582 12.3457 35.3637C15.0856 37.0125 17.8008 37.7672 21 37.7672C23.7481 37.7672 25.9055 37.275 28.3582 36.0855C32.0086 34.3301 34.8961 31.2293 36.5367 27.3328C36.7992 26.7176 36.7828 26.5863 36.4875 26.816Z" fill="#283BA5"/>
<path d="M63.44 15V15.54L57.7 25.82H63.5V29H52.32V28.46L58.04 18.2H52.84V15H63.44ZM75.5564 21.98C75.5564 20.7933 75.2097 19.8667 74.5164 19.2C73.8231 18.5333 73.0031 18.2 72.0564 18.2C71.0964 18.2 70.2697 18.5333 69.5764 19.2C68.8831 19.8667 68.5364 20.7933 68.5364 21.98C68.5364 23.18 68.8831 24.12 69.5764 24.8C70.2697 25.4667 71.0897 25.8 72.0364 25.8C72.9831 25.8 73.8031 25.4667 74.4964 24.8C75.2031 24.12 75.5564 23.18 75.5564 21.98ZM64.8164 21.98C64.8164 20.4467 65.1764 19.12 65.8964 18C66.6164 16.88 67.5097 16.06 68.5764 15.54C69.6564 15.02 70.8097 14.76 72.0364 14.76C72.9564 14.76 73.8431 14.9133 74.6964 15.22C75.5497 15.5267 76.3164 15.9733 76.9964 16.56C77.6897 17.1467 78.2431 17.9067 78.6564 18.84C79.0697 19.7733 79.2764 20.82 79.2764 21.98C79.2764 23.1667 79.0697 24.2333 78.6564 25.18C78.2564 26.1133 77.7097 26.8733 77.0164 27.46C76.3231 28.0333 75.5497 28.4733 74.6964 28.78C73.8564 29.0867 72.9697 29.24 72.0364 29.24C71.3164 29.24 70.6097 29.1467 69.9164 28.96C69.2364 28.7733 68.5831 28.4867 67.9564 28.1C67.3431 27.7 66.8031 27.22 66.3364 26.66C65.8697 26.1 65.4964 25.42 65.2164 24.62C64.9497 23.8067 64.8164 22.9267 64.8164 21.98ZM91.6397 29L84.5397 22.12V29H80.8797V15H82.1797L89.2597 21.86V15H92.9197V29H91.6397ZM100.462 18.2H98.5619V20.46H100.482C100.855 20.46 101.149 20.36 101.362 20.16C101.575 19.96 101.682 19.6867 101.682 19.34C101.682 19.0067 101.569 18.7333 101.342 18.52C101.129 18.3067 100.835 18.2 100.462 18.2ZM98.5619 25.82H101.022C101.422 25.82 101.729 25.7133 101.942 25.5C102.169 25.2867 102.282 25 102.282 24.64C102.282 24.28 102.169 23.9933 101.942 23.78C101.715 23.5533 101.402 23.44 101.002 23.44H98.5619V25.82ZM105.402 19.12C105.402 20.2267 105.002 21.1 104.202 21.74C105.389 22.4067 105.982 23.44 105.982 24.84C105.982 26.08 105.582 27.0867 104.782 27.86C103.982 28.62 102.815 29 101.282 29H94.9219V15H100.722C102.135 15 103.269 15.4 104.122 16.2C104.975 16.9867 105.402 17.96 105.402 19.12ZM112.655 25.82H114.435V29H107.215V25.82H108.995V18.2H107.355V15H114.295V18.2H112.655V25.82ZM119.83 21.7H121.85C122.437 21.7 122.89 21.5467 123.21 21.24C123.543 20.92 123.71 20.4933 123.71 19.96C123.71 19.44 123.537 19.02 123.19 18.7C122.857 18.3667 122.403 18.2 121.83 18.2H119.83V21.7ZM125.29 23.86L128.09 28.48V29H124.09L121.69 24.88H119.83V29H116.19V15H122.01C123.623 15 124.923 15.4667 125.91 16.4C126.91 17.32 127.41 18.5 127.41 19.94C127.41 21.7267 126.703 23.0333 125.29 23.86ZM139.83 21.98C139.83 20.7933 139.483 19.8667 138.79 19.2C138.097 18.5333 137.277 18.2 136.33 18.2C135.37 18.2 134.543 18.5333 133.85 19.2C133.157 19.8667 132.81 20.7933 132.81 21.98C132.81 23.18 133.157 24.12 133.85 24.8C134.543 25.4667 135.363 25.8 136.31 25.8C137.257 25.8 138.077 25.4667 138.77 24.8C139.477 24.12 139.83 23.18 139.83 21.98ZM129.09 21.98C129.09 20.4467 129.45 19.12 130.17 18C130.89 16.88 131.783 16.06 132.85 15.54C133.93 15.02 135.083 14.76 136.31 14.76C137.23 14.76 138.117 14.9133 138.97 15.22C139.823 15.5267 140.59 15.9733 141.27 16.56C141.963 17.1467 142.517 17.9067 142.93 18.84C143.343 19.7733 143.55 20.82 143.55 21.98C143.55 23.1667 143.343 24.2333 142.93 25.18C142.53 26.1133 141.983 26.8733 141.29 27.46C140.597 28.0333 139.823 28.4733 138.97 28.78C138.13 29.0867 137.243 29.24 136.31 29.24C135.59 29.24 134.883 29.1467 134.19 28.96C133.51 28.7733 132.857 28.4867 132.23 28.1C131.617 27.7 131.077 27.22 130.61 26.66C130.143 26.1 129.77 25.42 129.49 24.62C129.223 23.8067 129.09 22.9267 129.09 21.98ZM147.588 14.98L150.788 22.62H150.888L154.028 14.98H157.668V15.52L152.008 29H149.668L143.948 15.52V14.98H147.588ZM166.371 29L165.551 27.24H160.011L159.191 29H155.451V28.48L161.531 15H164.031L170.111 28.48V29H166.371ZM164.411 24.24L162.771 20.48L161.151 24.24H164.411ZM182.474 29L175.374 22.12V29H171.714V15H173.014L180.094 21.86V15H183.754V29H182.474ZM190.952 25.82H192.732V29H185.512V25.82H187.292V18.2H185.652V15H192.592V18.2H190.952V25.82ZM203.226 15V18.2H198.126V20.18H202.806V23.36H198.126V25.82H203.406V29H194.486V15H203.226Z" fill="white" fill-opacity="0.9"/>
</svg>
