<svg width="191" height="38" viewBox="0 0 191 38" fill="none" xmlns="http://www.w3.org/2000/svg">
<path d="M17.961 3.83708C14.5024 4.16365 11.6895 5.30662 9.23284 7.3699C7.65198 8.69841 6.03401 10.7765 5.30667 12.4242L5.12854 12.8324L5.70002 12.5726C8.14182 11.4371 10.5539 10.7246 13.1739 10.3461C13.8789 10.2496 14.8883 10.2125 18.0352 10.1679C20.6403 10.1383 22.0875 10.0863 22.2508 10.0344C22.9262 9.81169 23.5571 9.24763 23.8539 8.61677C23.9949 8.30505 24.0098 8.12693 24.0321 6.48669L24.0543 4.69802L23.8465 4.61638C22.3696 4.0449 19.616 3.6738 17.961 3.83708Z" fill="white"/>
<path d="M26.5703 7.07299C26.5703 8.03783 26.5406 8.40893 26.4219 8.86166C26.0656 10.257 25.1379 11.4074 23.8316 12.0902C22.7703 12.6394 22.852 12.632 18.2578 12.6913C13.7973 12.7507 13.5227 12.773 11.3629 13.2554C9.11407 13.7601 6.34571 14.9031 4.42345 16.1351L4.03009 16.3874L3.94845 17.0035C3.81485 17.9312 3.75548 19.3265 3.8297 19.4675C3.89649 19.5788 3.95587 19.5566 4.3047 19.282C6.9543 17.2781 10.1902 15.9347 13.6711 15.3929C14.2649 15.2964 15.3633 15.2593 18.5176 15.2148C22.9856 15.1554 22.9781 15.1554 24.2473 14.6804C26.0285 14.0124 27.4535 12.6988 28.3219 10.9472C28.782 10.0046 29.0121 9.21049 29.0715 8.30502L29.116 7.66674L28.6039 7.24369C28.1215 6.84291 26.7039 5.86322 26.6149 5.86322C26.5926 5.86322 26.5703 6.41244 26.5703 7.07299Z" fill="white"/>
<path d="M31.1348 10.7766C30.1699 13.7008 27.8098 16.1129 24.9004 17.1445C23.416 17.6715 23.3269 17.6789 18.7773 17.7383C15.4746 17.7828 14.5023 17.8199 13.8789 17.9164C10.4723 18.4656 7.36991 19.9055 4.80936 22.1395L4.2453 22.6367L4.45311 23.3195C4.69061 24.1211 5.11366 25.2344 5.17303 25.2344C5.1953 25.2344 5.50702 24.9598 5.85585 24.6184C8.25311 22.3102 10.9769 20.9668 14.3762 20.4027C14.673 20.3508 16.5582 20.2988 18.9629 20.2617C23.3789 20.2023 23.5496 20.1875 25.0637 19.7496C28.166 18.8441 30.823 16.7734 32.4484 13.9828C33.0199 13.018 33.0051 13.0699 32.7453 12.5059C32.4855 11.9566 31.7953 10.7766 31.5207 10.4055L31.3351 10.1605L31.1348 10.7766Z" fill="white"/>
<path d="M33.4281 17.0406C31.3426 19.6383 28.4406 21.5234 25.2418 22.3398C23.7945 22.7035 23.4754 22.7332 19.1856 22.7852C14.8215 22.8371 14.6508 22.852 13.0774 23.2676C11.7117 23.6312 10.1457 24.4031 8.90627 25.316C8.26799 25.791 6.88752 27.1121 6.65002 27.4758C6.51642 27.6762 6.51642 27.6762 6.87267 28.1438C7.31799 28.7375 8.08986 29.6133 8.15666 29.6133C8.18634 29.6133 8.3422 29.4426 8.49806 29.2273C9.58908 27.8098 11.4074 26.5109 13.211 25.8875C14.6137 25.3977 14.8363 25.3754 19.4453 25.3086C23.2379 25.2566 23.7203 25.2344 24.4922 25.0934C27.9953 24.4477 31.0235 22.941 33.6063 20.5512L34.1778 20.0316L34.1629 18.7922C34.1555 18.1094 34.1035 17.2855 34.0516 16.9664L33.9551 16.3801L33.4281 17.0406Z" fill="white"/>
<path d="M33.0125 24.2621C32.5969 24.5961 31.0161 25.509 30.17 25.9097C28.4778 26.7113 26.6446 27.2828 24.7149 27.6168C23.8762 27.7652 23.4086 27.7801 19.668 27.832C16.2911 27.8765 15.4524 27.9062 15.0145 28.0027C13.8715 28.2625 13.0477 28.6187 12.1125 29.2644C11.5633 29.6429 10.4352 30.7636 10.2496 31.1199C10.1161 31.3648 10.1086 31.3574 11.17 31.9957C13.6489 33.4875 16.1055 34.1703 19 34.1703C21.4864 34.1703 23.4383 33.725 25.6575 32.6488C28.9602 31.0605 31.5727 28.2551 33.0571 24.7297C33.2946 24.173 33.2797 24.0543 33.0125 24.2621Z" fill="white"/>
<path d="M56.868 10.7V11.213L51.415 20.979H56.925V24H46.304V23.487L51.738 13.74H46.798V10.7H56.868ZM68.3786 17.331C68.3786 16.2037 68.0493 15.3233 67.3906 14.69C66.7319 14.0567 65.9529 13.74 65.0536 13.74C64.1416 13.74 63.3563 14.0567 62.6976 14.69C62.0389 15.3233 61.7096 16.2037 61.7096 17.331C61.7096 18.471 62.0389 19.364 62.6976 20.01C63.3563 20.6433 64.1353 20.96 65.0346 20.96C65.9339 20.96 66.7129 20.6433 67.3716 20.01C68.0429 19.364 68.3786 18.471 68.3786 17.331ZM58.1756 17.331C58.1756 15.8743 58.5176 14.614 59.2016 13.55C59.8856 12.486 60.7343 11.707 61.7476 11.213C62.7736 10.719 63.8693 10.472 65.0346 10.472C65.9086 10.472 66.7509 10.6177 67.5616 10.909C68.3723 11.2003 69.1006 11.6247 69.7466 12.182C70.4053 12.7393 70.9309 13.4613 71.3236 14.348C71.7163 15.2347 71.9126 16.229 71.9126 17.331C71.9126 18.4583 71.7163 19.4717 71.3236 20.371C70.9436 21.2577 70.4243 21.9797 69.7656 22.537C69.1069 23.0817 68.3723 23.4997 67.5616 23.791C66.7636 24.0823 65.9213 24.228 65.0346 24.228C64.3506 24.228 63.6793 24.1393 63.0206 23.962C62.3746 23.7847 61.7539 23.5123 61.1586 23.145C60.5759 22.765 60.0629 22.309 59.6196 21.777C59.1763 21.245 58.8216 20.599 58.5556 19.839C58.3023 19.0663 58.1756 18.2303 58.1756 17.331ZM83.6577 24L76.9127 17.464V24H73.4357V10.7H74.6707L81.3967 17.217V10.7H84.8737V24H83.6577ZM92.0388 13.74H90.2338V15.887H92.0578C92.4124 15.887 92.6911 15.792 92.8938 15.602C93.0964 15.412 93.1978 15.1523 93.1978 14.823C93.1978 14.5063 93.0901 14.2467 92.8748 14.044C92.6721 13.8413 92.3934 13.74 92.0388 13.74ZM90.2338 20.979H92.5708C92.9508 20.979 93.2421 20.8777 93.4448 20.675C93.6601 20.4723 93.7678 20.2 93.7678 19.858C93.7678 19.516 93.6601 19.2437 93.4448 19.041C93.2294 18.8257 92.9318 18.718 92.5518 18.718H90.2338V20.979ZM96.7318 14.614C96.7318 15.6653 96.3518 16.495 95.5918 17.103C96.7191 17.7363 97.2828 18.718 97.2828 20.048C97.2828 21.226 96.9028 22.1823 96.1428 22.917C95.3828 23.639 94.2744 24 92.8178 24H86.7758V10.7H92.2858C93.6284 10.7 94.7051 11.08 95.5158 11.84C96.3264 12.5873 96.7318 13.512 96.7318 14.614ZM103.623 20.979H105.314V24H98.4547V20.979H100.146V13.74H98.5877V10.7H105.181V13.74H103.623V20.979ZM110.438 17.065H112.357C112.915 17.065 113.345 16.9193 113.649 16.628C113.966 16.324 114.124 15.9187 114.124 15.412C114.124 14.918 113.96 14.519 113.63 14.215C113.314 13.8983 112.883 13.74 112.338 13.74H110.438V17.065ZM115.625 19.117L118.285 23.506V24H114.485L112.205 20.086H110.438V24H106.98V10.7H112.509C114.042 10.7 115.277 11.1433 116.214 12.03C117.164 12.904 117.639 14.025 117.639 15.393C117.639 17.0903 116.968 18.3317 115.625 19.117ZM129.438 17.331C129.438 16.2037 129.109 15.3233 128.45 14.69C127.792 14.0567 127.013 13.74 126.113 13.74C125.201 13.74 124.416 14.0567 123.757 14.69C123.099 15.3233 122.769 16.2037 122.769 17.331C122.769 18.471 123.099 19.364 123.757 20.01C124.416 20.6433 125.195 20.96 126.094 20.96C126.994 20.96 127.773 20.6433 128.431 20.01C129.103 19.364 129.438 18.471 129.438 17.331ZM119.235 17.331C119.235 15.8743 119.577 14.614 120.261 13.55C120.945 12.486 121.794 11.707 122.807 11.213C123.833 10.719 124.929 10.472 126.094 10.472C126.968 10.472 127.811 10.6177 128.621 10.909C129.432 11.2003 130.16 11.6247 130.806 12.182C131.465 12.7393 131.991 13.4613 132.383 14.348C132.776 15.2347 132.972 16.229 132.972 17.331C132.972 18.4583 132.776 19.4717 132.383 20.371C132.003 21.2577 131.484 21.9797 130.825 22.537C130.167 23.0817 129.432 23.4997 128.621 23.791C127.823 24.0823 126.981 24.228 126.094 24.228C125.41 24.228 124.739 24.1393 124.08 23.962C123.434 23.7847 122.814 23.5123 122.218 23.145C121.636 22.765 121.123 22.309 120.679 21.777C120.236 21.245 119.881 20.599 119.615 19.839C119.362 19.0663 119.235 18.2303 119.235 17.331ZM136.808 10.681L139.848 17.939H139.943L142.926 10.681H146.384V11.194L141.007 24H138.784L133.35 11.194V10.681H136.808ZM154.652 24L153.873 22.328H148.61L147.831 24H144.278V23.506L150.054 10.7H152.429L158.205 23.506V24H154.652ZM152.79 19.478L151.232 15.906L149.693 19.478H152.79ZM169.95 24L163.205 17.464V24H159.728V10.7H160.963L167.689 17.217V10.7H171.166V24H169.95ZM178.004 20.979H179.695V24H172.836V20.979H174.527V13.74H172.969V10.7H179.562V13.74H178.004V20.979ZM189.665 10.7V13.74H184.82V15.621H189.266V18.642H184.82V20.979H189.836V24H181.362V10.7H189.665Z" fill="white" fill-opacity="0.9"/>
</svg>
