<svg width="42" height="42" viewBox="0 0 42 42" fill="none" xmlns="http://www.w3.org/2000/svg">
<path d="M19.52 0.0273018C19.3637 0.0437355 18.8786 0.101254 18.4511 0.150555C14.9154 0.544975 11.2811 2.01583 8.27173 4.2673C7.29327 4.99862 5.48434 6.74885 4.67854 7.74311C2.72984 10.1425 1.14291 13.3718 0.493344 16.2888C0.0904464 18.0802 0 18.9594 0 21.0137C0 23.0679 0.0904464 23.9471 0.493344 25.7385C1.14291 28.6555 2.72984 31.893 4.67854 34.2842C5.435 35.2209 6.93148 36.7 7.86061 37.4395C10.2204 39.3212 13.4107 40.866 16.2721 41.507C17.9906 41.8932 19.0184 42 21 42C24.4945 42 27.175 41.3837 30.2502 39.8718C33.6789 38.1955 36.417 35.7961 38.5548 32.5997C39.8128 30.7262 41.0215 27.9242 41.5067 25.7385C41.9096 23.9471 42 23.0679 42 21.0137C42 18.9594 41.9096 18.0802 41.5067 16.2888C40.8571 13.3718 39.2702 10.1343 37.3215 7.74311C36.565 6.80637 35.0685 5.3273 34.1394 4.58776C31.278 2.30342 27.7506 0.766834 24.1081 0.216293C23.072 0.0601692 20.2353 -0.0548706 19.52 0.0273018ZM22.4389 6.42838C24.6507 6.89676 26.4843 8.40869 27.397 10.5123C27.7753 11.3997 27.9233 12.1803 27.9233 13.2896C27.915 15.2288 27.1997 16.8805 25.7772 18.2363C25.0208 18.9676 24.2067 19.4688 23.2776 19.7893C19.0431 21.2437 14.5536 18.3842 14.0932 13.9306C13.7314 10.4219 16.083 7.17614 19.5282 6.42838C20.2271 6.28048 21.7236 6.28048 22.4389 6.42838ZM26.7968 23.791C28.9264 24.3826 30.5298 25.722 31.4342 27.6859C32.2565 29.4526 32.2976 31.1617 31.5493 32.2546C30.9327 33.1502 28.7373 34.6129 26.7968 35.4181C23.3269 36.8479 18.9444 36.8808 15.4088 35.5003C13.4765 34.7443 10.9687 33.1091 10.4178 32.2464C9.77643 31.2357 9.74354 29.9127 10.3027 28.2693C11.1331 25.8535 13.3532 24.0375 15.9432 23.6513C16.2146 23.6102 18.6237 23.5856 21.2878 23.5938C26.0239 23.6102 26.1554 23.6102 26.7968 23.791Z" fill="#283BA5"/>
</svg>
